STARTFONT 2.1
COMMENT
COMMENT Converted from OpenType font "weather.otf" by "otf2bdf 3.0".
COMMENT
FONT -FreeType-weather-Medium-R-Normal--66-480-100-100-P-129-ISO10646-1
SIZE 48 100 100
FONTBOUNDINGBOX 113 95 -11 -22
STARTPROPERTIES 19
FOUNDRY "FreeType"
FAMILY_NAME "weather"
WEIGHT_NAME "Medium"
SLANT "R"
SETWIDTH_NAME "Normal"
ADD_STYLE_NAME ""
PIXEL_SIZE 66
POINT_SIZE 480
RESOLUTION_X 100
RESOLUTION_Y 100
SPACING "P"
AVERAGE_WIDTH 129
CHARSET_REGISTRY "ISO10646"
CHARSET_ENCODING "1"
FONT_ASCENT 56
FONT_DESCENT 13
COPYRIGHT "Typeface © (your company). 2020. All Rights Reserved"
_OTF_FONTFILE "weather.otf"
_OTF_PSNAME "weather"
ENDPROPERTIES
CHARS 240
STARTCHAR 0000
ENCODING 0
SWIDTH 0 0
DWIDTH 0 0
BBX 0 0 0 0
BITMAP
ENDCHAR
STARTCHAR 001D
ENCODING 29
SWIDTH 0 0
DWIDTH 0 0
BBX 0 0 0 0
BITMAP
ENDCHAR
STARTCHAR 0020
ENCODING 32
SWIDTH 255 0
DWIDTH 17 0
BBX 0 0 0 0
BITMAP
ENDCHAR
STARTCHAR 0021
ENCODING 33
SWIDTH 330 0
DWIDTH 22 0
BBX 8 47 7 0
BITMAP
3C
3E
3E
3E
3E
3E
3E
3E
3E
3C
3C
3C
3C
3C
3C
3C
3C
3C
3C
3C
3C
3C
18
18
18
18
18
18
18
18
18
18
18
18
18
10
00
00
00
38
7C
FE
FF
FF
7E
3C
18
ENDCHAR
STARTCHAR 0022
ENCODING 34
SWIDTH 330 0
DWIDTH 22 0
BBX 16 15 3 36
BITMAP
781E
F83F
FC3F
F81F
781E
781E
781E
781E
781E
700E
300C
300C
300C
300C
2004
ENDCHAR
STARTCHAR 0023
ENCODING 35
SWIDTH 660 0
DWIDTH 44 0
BBX 35 47 4 0
BITMAP
0000380700
0000380F00
0000700E00
0000700E00
0000700E00
0000E01C00
0000E01C00
0000E01C00
0001E03800
0001C03800
0001C03800
0001C03800
0003807000
0003807000
0003807000
000700E000
0FFFFFFFE0
1FFFFFFFE0
1FFFFFFFE0
000E01C000
000E01C000
000E01C000
001C038000
001C038000
001C038000
003C070000
0038070000
0038070000
7FFFFFFF80
FFFFFFFF00
FFFFFFFF00
FFFFFFFF00
00E01C0000
00E01C0000
00E01C0000
00E0380000
01C0380000
01C0380000
01C0380000
0380700000
0380700000
0380700000
0700E00000
0700E00000
0700E00000
0701E00000
0E01C00000
ENDCHAR
STARTCHAR 0024
ENCODING 36
SWIDTH 495 0
DWIDTH 33 0
BBX 28 59 4 -8
BITMAP
000E0000
000E0000
000E0000
000E0000
007FC600
03FFFF00
0F0E3F00
1E0E0F00
380E0380
780E0180
700E0180
E00E00C0
E00E0040
E00E0000
E00E0000
E00E0000
E00E0000
F00E0000
F80E0000
FC0E0000
FE0E0000
7F8E0000
7FFE0000
3FFE0000
1FFFC000
07FFF000
03FFFC00
00FFFE00
001FFF00
000FFF80
000E7FC0
000E1FE0
000E07E0
000E03E0
000E01F0
000E00F0
000E00F0
000E00F0
000E00F0
000E00F0
000E00F0
C00E00F0
C00E00E0
E00E00E0
E00E01E0
F00E01C0
F00E0380
F80E0F00
FE0E3E00
FFFFF800
CFFFE000
C01E0000
000E0000
000E0000
000E0000
000E0000
000E0000
000E0000
000E0000
ENDCHAR
STARTCHAR 0025
ENCODING 37
SWIDTH 780 0
DWIDTH 52 0
BBX 48 48 2 0
BITMAP
00FFC0000380
0301F0000300
0E00F8000700
1C007C000E00
3C003E000C00
38001E001C00
78001F003800
78000F003000
F8000F807000
F8000F80E000
F8000F80E000
F8000781C000
F80007838000
F80007838000
F80007870000
780007860000
7C000F0E0000
7C000F1C0000
3E000E180000
1E001E380000
0F001C700000
078030600000
03E060E00000
00FF81C0FE00
000001C307C0
0000038E01E0
0000071C00F8
00000738007C
00000E78007C
00000C70003E
00001CF0003E
000038F0001F
000030F0001F
000071F0001F
0000E1F0000F
0000C1F0000F
0001C1F0000F
000381F0000F
000380F0000F
000700F8000F
000E00F8001E
000E007C001E
001C007C001C
0018003E0038
0038001F0030
0070000780E0
00600003E380
00E000001C00
ENDCHAR
STARTCHAR 0026
ENCODING 38
SWIDTH 825 0
DWIDTH 55 0
BBX 49 47 5 -1
BITMAP
000FE300000000
001FFF00000000
00381F00000000
00700780000000
00E00380000000
00E00180000000
01E000C0000000
01E000C0000000
01E00040000000
01E00000000000
01E00000000000
01E00000000000
00F00000000000
00F00000000000
00780000000000
007C0000000000
003E0000000000
01FE0000000000
07DF0000000000
0E0F8000000000
1C07C000000000
3803C001FFF800
3801E0001FC000
7001F0001F0000
7000F8000E0000
F0007C000E0000
E0003C000C0000
E0001E000C0000
E0001F001C0000
E0000F801C0000
F00007C0180000
F00003C0180000
F00001E0380000
F00001F0300000
F80000F8700000
7800007C600000
7C00003CC00000
7E00001FC00000
3E00000F800000
3F00000F800180
1F800007C00180
0FC0000FE00300
07F0001DF00700
03FC0078FF3E00
01FFC7E07FFE00
00FFFFC03FFC00
001FFE0007FC00
ENDCHAR
STARTCHAR 0027
ENCODING 39
SWIDTH 165 0
DWIDTH 11 0
BBX 6 15 3 36
BITMAP
78
F8
FC
F8
78
78
78
78
78
70
30
30
30
30
20
ENDCHAR
STARTCHAR 0028
ENCODING 40
SWIDTH 375 0
DWIDTH 25 0
BBX 14 63 8 -12
BITMAP
000C
001C
0038
0070
00F0
00E0
01E0
01C0
0380
0780
0780
0700
0F00
0E00
1E00
1E00
1E00
3C00
3C00
3C00
7C00
7C00
7C00
7C00
7C00
7C00
FC00
F800
F800
F800
F800
F800
F800
F800
F800
F800
FC00
7C00
7C00
7C00
7C00
7C00
3C00
3C00
3C00
3C00
1E00
1E00
1E00
0F00
0F00
0700
0780
0380
03C0
01C0
01E0
00E0
0070
0070
0038
001C
000C
ENDCHAR
STARTCHAR 0029
ENCODING 41
SWIDTH 375 0
DWIDTH 25 0
BBX 14 63 2 -12
BITMAP
E000
7000
3800
3800
1C00
0E00
0E00
0700
0780
0380
03C0
03C0
01E0
01E0
01E0
00F0
00F0
00F0
00F8
0078
0078
0078
007C
007C
007C
007C
007C
007C
007C
007C
007C
007C
007C
007C
007C
007C
007C
007C
007C
007C
007C
0078
0078
00F8
00F8
00F0
00F0
00F0
01E0
01E0
01C0
03C0
03C0
0380
0780
0700
0E00
1E00
1C00
3800
3800
7000
E000
ENDCHAR
STARTCHAR 002A
ENCODING 42
SWIDTH 495 0
DWIDTH 33 0
BBX 19 18 7 33
BITMAP
01F000
01F000
01F000
01F000
20E080
78E1E0
FC43E0
FE4FE0
FF5FE0
78E1C0
00A000
01B000
079C00
1F1F00
1F1F80
1F1F80
1F0F00
0E0E00
ENDCHAR
STARTCHAR 002B
ENCODING 43
SWIDTH 495 0
DWIDTH 33 0
BBX 27 29 3 9
BITMAP
001F0000
001F0000
001F0000
001F0000
001F0000
001F0000
001F0000
001F0000
001F0000
001F0000
001F0000
001F0000
FFFFFFE0
FFFFFFE0
FFFFFFE0
FFFFFFE0
FFFFFFE0
001F0000
001F0000
001F0000
001F0000
001F0000
001F0000
001F0000
001F0000
001F0000
001F0000
001F0000
001F0000
ENDCHAR
STARTCHAR 002C
ENCODING 44
SWIDTH 270 0
DWIDTH 18 0
BBX 8 18 4 -10
BITMAP
1C
3C
7E
FF
FF
7F
1F
1F
0F
0F
0E
0E
0E
1C
18
38
70
60
ENDCHAR
STARTCHAR 002D
ENCODING 45
SWIDTH 330 0
DWIDTH 22 0
BBX 14 5 4 13
BITMAP
FFFC
FFFC
FFFC
FFFC
FFFC
ENDCHAR
STARTCHAR 002E
ENCODING 46
SWIDTH 270 0
DWIDTH 18 0
BBX 8 9 4 0
BITMAP
08
1C
3E
7F
FF
7F
7E
3C
18
ENDCHAR
STARTCHAR 002F
ENCODING 47
SWIDTH 285 0
DWIDTH 19 0
BBX 21 49 0 -2
BITMAP
000038
000030
000070
000070
0000E0
0000E0
0000C0
0001C0
0001C0
000180
000380
000380
000300
000700
000600
000E00
000E00
000C00
001C00
001C00
001800
003800
003800
003000
007000
006000
00E000
00E000
00C000
01C000
01C000
018000
038000
038000
030000
070000
060000
0E0000
0E0000
0C0000
1C0000
1C0000
180000
380000
380000
300000
700000
600000
E00000
ENDCHAR
STARTCHAR 0030
ENCODING 48
SWIDTH 1530 0
DWIDTH 102 0
BBX 102 86 0 -13
BITMAP
0000000000000001C000000000
0000000000000003E000000000
0000000000000003F000000000
0000000000000003F000000000
0000000000000003F000000000
0000000000000003F000000000
0000000000000003F000000000
0000000000000003F000000000
0000000000000003F000000000
0000000000000003F000000000
0000000001C00003F00001C000
0000000003E00003E00003E000
0000000003F00001E00007F000
0000000003F8000000000FF000
0000000003FC000000001FF000
0000000001FC000000003FE000
0000000000FC000000007FC000
000000000078000000007F8000
000000000000000000007F0000
0000000000000007F0007E0000
000000000000003FFF003C0000
00000000000000FFFFC0000000
00000000000003FFFFE0000000
0000000007FE07FFFFF8000000
000000003FFFCFFFFFFC000000
00000000FFFFFFF80FFC000000
00000003FFFFFFE001FE000000
00000007FFFFFF8000FF000000
0000000FFFFFFF00007F800000
0000001FFC01FF80003F800000
0000003FE0007FC0001FC00000
0000007F80001FE0000FC00000
0000007F00000FE0000FC00000
000000FE000007F0000FC00000
000001FC000003F80007E01FF0
000001FC000003F80007E07FF8
000001F8000001F80007E07FFC
000003F0000000FC0007E07FFC
000003F0000000FC0007E07FFC
000007F0000000FFF807E03FF8
00003FF0000000FFFE07E00000
0000FFE00000007FFF8FC00000
0001FFE00000007FFFCFC00000
0003FFE00000007FFFFFC00000
0007FFC003F0007FFFFF800000
000FF8000FFC00000FFF800000
001FE0001FFF000007FF000000
001FC0003FFF000001FF000000
003F80003FFF800000FE000000
003F00003FFFC000007E000000
007F00003E1FC000007F000000
007E0000080FC000003F000000
00000000000FC000003F000000
00000000000FC000003F000000
00000000000FC000003F000000
00000000000FC000001F000000
00000000003FC000001F070000
7FFFFFFFFFFF8000003F0F8000
FFFFFFFFFFFF8000003F0FC000
FFFFFFFFFFFF0000003F0FE000
FFFFFFFFFFFE0000003F0FF000
7FFFFFFFFFF80000007E07F000
000000000000000000FE03F000
000000000000000001FE01E000
000000000000000003FC000000
000000000000000007F8000000
00000000000000001FF8000000
7FFFFFC001FFFFFFFFF0000000
FFFFFFF001FFFFFFFFE0000000
FFFFFFFC01FFFFFFFFC0000000
FFFFFFFE01FFFFFFFF00000000
FFFFFFFE01FFFFFFFC00000000
7FFFFFFF01FFFFFFE000000000
0000007F000000000000000000
0000003F800000000000000000
0000001F800000000000000000
0000001F800000000000000000
0000001F800000000000000000
0000783F000000000000000000
0000FC7F000000000000000000
0000FFFF000000000000000000
0000FFFE000000000000000000
00007FFC000000000000000000
00003FF8000000000000000000
00001FF0000000000000000000
00000380000000000000000000
ENDCHAR
STARTCHAR 0031
ENCODING 49
SWIDTH 1515 0
DWIDTH 101 0
BBX 101 84 0 -11
BITMAP
00000000000000018000000000
0000000000000003C000000000
0000000000000007E000000000
0000000000000007E000000000
0000000000000007E000000000
0000000000000007E000000000
0000000000000007E000000000
0000000000000007E000000000
0000000000000007E000000000
0000000000000007E000000000
0000000001800007E000018000
0000000003C00007E00003E000
0000000007E00003C00007E000
0000000007F0000000000FE000
0000000007F8000000001FE000
0000000003F8000000003FC000
0000000001F8000000007F8000
0000000000F000000000FF0000
00000000000000000000FE0000
0000000000000007E0007C0000
000000000000007FFE00780000
00000000000001FFFF80000000
00000000000003FFFFC0000000
000000000FFE0FFFFFF0000000
000000007FFFDFFFFFF8000000
00000001FFFFFFF81FFC000000
00000007FFFFFFC003FE000000
0000000FFFFFFF8001FE000000
0000001FFFFFFF0000FF000000
0000003FF803FF80007F800000
0000007FC000FF80003F800000
000000FF80003FC0001F800000
000000FE00001FE0001FC00000
000001FC00000FE0000FC00000
000001FC000007F0000FC00000
000003F8000003F0000FC07FF0
000003F0000003F8000FC0FFF8
000007F0000001F8000FC0FFF8
000007E0000001F8000FC0FFF8
00000FE0000000FFF00FC07FF0
00007FE0000000FFFC0FC01FC0
0000FFE0000000FFFF0FC00000
0003FFE0000000FFFF9FC00000
0007FFC0000000FFFFFF800000
000FFFC00000007FFFFF800000
001FF800000000001FFF000000
001FE0000000000007FF000000
003F80000000000003FE000000
003F00000000000001FE000000
007F00000000000000FE000000
007E000000000000007E000000
007C000000000000007E000000
0000000000000000007F000000
0000000000000000003F000000
0000000000000000003F000000
0000000000000000003F000000
0000000000000000003F000000
03FFFFFFFFE00000003F0F0000
07FFFFFFFFE00000003F1F8000
07FFFFFFFFE00000007E1FC000
07FFFFFFFFE00000007E1FE000
03FFFFFFFFE0000000FE0FE000
000000000000000000FC07E000
000000000000000001FC03E000
000000000000000003F8008000
00000000000000000FF8000000
00000000000000003FF0000000
3FFFFFFF83FFFFFFFFE0000000
7FFFFFFFC3FFFFFFFFC0000000
FFFFFFFFC3FFFFFFFF80000000
FFFFFFFFC3FFFFFFFF00000000
FFFFFFFFC3FFFFFFFC00000000
3FFFFFFF83FFFFFFE000000000
00000000000000000000000000
00000000000000000000000000
00000000000000000000000000
00000000000000000000000000
00000000000000000000000000
000FFFFFFFFF00000000000000
001FFFFFFFFF80000000000000
001FFFFFFFFF80000000000000
001FFFFFFFFF80000000000000
001FFFFFFFFF80000000000000
000FFFFFFFFF00000000000000
ENDCHAR
STARTCHAR 0032
ENCODING 50
SWIDTH 1395 0
DWIDTH 93 0
BBX 93 73 0 0
BITMAP
000000000000018000000000
00000000000003E000000000
00000000000007E000000000
00000000000007E000000000
00000000000007E000000000
00000000000007E000000000
00000000000007E000000000
00000000000007E000000000
00000000000007E000000000
00000000000007E000000000
00000001800007E00001C000
00000003E00003E00003E000
00000007F00003C00007E000
00000007F8000000000FE000
00000007F8000000001FE000
00000003F8000000003FC000
00000001F8000000007F8000
00000000F8000000007F0000
0000000000000000007E0000
00000000000007E0007C0000
0000000000007FFE00380000
000000000001FFFF80000000
000000000003FFFFE0000000
00000007FC07FFFFF0000000
0000007FFF9FFFFFF8000000
000001FFFFFFF80FFC000000
000003FFFFFFE003FE000000
00000FFFFFFF8000FF000000
00001FFFFFFF00007F000000
00003FF803FF80003F800000
00007FE000FF80001F800000
00007F80003FC0001F800000
0000FF00001FE0000FC00000
0001FE00000FF0000FC00000
0001FC000007F0000FC01FE0
0003F8000003F8000FC07FF8
0003F8000003F80007C07FF8
0003F0000001F80007C0FFF8
0007F0000001FC0007C07FF8
000FE0000000FFF00FC07FF0
007FE0000000FFFC0FC00000
00FFE0000000FFFF0FC00000
03FFE0000000FFFF9FC00000
07FFE0000000FFFFFF800000
0FFFC00000007FFFFF800000
1FF800000000001FFF800000
1FE0000000000007FF000000
3FC0000000000003FE000000
3F80000000000001FE000000
7F00000000000000FE000000
7E000000000000007E000000
FE000000000000007E000000
FC000000000000007F000000
FC000000000000003F000000
FC000000000000003F000000
FC000000000000003F000000
FC000000000000003F060000
FC000000000000003F0F8000
FC000000000000003F1FC000
FE000000000000007F1FE000
7E000000000000007E0FE000
7E00000000000000FE0FE000
7F00000000000000FE07E000
3F80000000000001FC03E000
3FC0000000000003FC000000
1FE0000000000007F8000000
0FF800000000001FF0000000
0FFFFFFFFFFFFFFFE0000000
07FFFFFFFFFFFFFFC0000000
01FFFFFFFFFFFFFF80000000
00FFFFFFFFFFFFFF00000000
003FFFFFFFFFFFFC00000000
0007FFFFFFFFFFE000000000
ENDCHAR
STARTCHAR 0033
ENCODING 51
SWIDTH 1410 0
DWIDTH 94 0
BBX 94 93 0 -20
BITMAP
00000000000001C000000000
00000000000003E000000000
00000000000003E000000000
00000000000003E000000000
00000000000003E000000000
00000000000003E000000000
00000000000003E000000000
00000000000003E000000000
00000000000003E000000000
00000000000003E000000000
00000001C00003E00001C000
00000003E00003E00003E000
00000007F00001C00007F000
00000007F8000000000FF000
00000003F8000000001FE000
00000001FC000000003FC000
00000000F8000000007F8000
0000000070000000007F0000
0000000000000000007E0000
0000000000000FF8007C0000
0000000000007FFF00380000
000000000001FFFFC0000000
000000000003FFFFE0000000
0000000FFE07FFFFF8000000
0000007FFFCFFFFFFC000000
000001FFFFFFF80FFE000000
000003FFFFFFE001FE000000
00000FFFFFFF8000FF000000
00001FFFFFFF00007F800000
00003FF801FF80003F800000
00007FC0007FC0001FC00000
00007F80003FE0000FC00000
0000FF00000FE0000FC00000
0001FE000007F0000FE00000
0001FC000003F00007E01FF0
0003F8000003F80007E07FF8
0003F8000001F80007E07FFC
0003F0000001FC0007E07FFC
0007F0000000FC0007E07FFC
001FE0000000FFF007E03FF8
007FE0000000FFFE0FE00000
01FFE0000000FFFF8FC00000
03FFE00000007FFFCFC00000
07FFE00000007FFFFFC00000
0FFF000000007FFFFF800000
1FF800000000000FFF800000
1FE0000000000007FF000000
3FC0000000000001FF000000
3F80000000000000FE000000
7F00000000000000FE000000
7E000000000000007E000000
FE000000000000003F000000
FC000000000000003F000000
FC000000000000003F000000
FC000000000000003F000000
FC000000000000003F000000
FC000038038070003F020000
FC00007C07C0F8003F0F8000
FC0000FC0FC0FC003F0FC000
FE0000FC0FC0FC003F0FE000
7E0000FC0FC1F8007F0FF000
7E0001FC1F81F8007E07F000
7F0001F81F81F800FE03F000
3F8001F81F83F001FC01E000
3FC003F83F83F003FC000000
1FE003F03F03F007F8000000
0FF803F03F07E01FF8000000
07FF83F03F07E1FFF0000000
03FF87E07E07E1FFE0000000
01FF87E07E0FC1FFC0000000
00FF87E07E0FC1FF00000000
003F87C0FE07C1FC00000000
000783C0FC0781E000000000
00000000FC00000000000000
00000001FC00000000000000
00000001F800000000000000
00000C01F80C000000000000
00001F01F83E000000000000
00003F03F03F000000000000
00003F03F03F000000000000
00001F03F03E000000000000
00000E03F01E000000000000
00000001E000000000000000
000000000000000000000000
000000000000000000000000
000000000000000000000000
000000000000000000000000
0000000F0000000000000000
0000000F8000000000000000
0000001F8000000000000000
0000001F8000000000000000
0000000F8000000000000000
000000060000000000000000
ENDCHAR
STARTCHAR 0034
ENCODING 52
SWIDTH 1395 0
DWIDTH 93 0
BBX 93 95 0 -22
BITMAP
00000000000001C000000000
00000000000003E000000000
00000000000007E000000000
00000000000007E000000000
00000000000007E000000000
00000000000007E000000000
00000000000007E000000000
00000000000007E000000000
00000000000007E000000000
00000000000007E000000000
00000001C00007E00001C000
00000003E00003E00003E000
00000007F00003C00007E000
00000007F8000000000FE000
00000007F8000000001FE000
00000003F8000000003FC000
00000001F8000000007F8000
00000000F000000000FF0000
000000000000000000FE0000
0000000000000FF0007C0000
0000000000007FFE00380000
000000000001FFFF80000000
000000000003FFFFE0000000
00000007FC0FFFFFF0000000
0000007FFF9FFFFFF8000000
000001FFFFFFF00FFC000000
000003FFFFFFC003FE000000
00000FFFFFFF8000FF000000
00001FFFFFFF00007F000000
00003FF803FF80003F800000
00007FE000FFC0001F800000
00007F80003FC0001F800000
0000FF00001FE0000FC00000
0001FE00000FF0000FC00000
0001FC000007F0000FC03FF0
0003F8000003F8000FC07FF8
0003F0000001F8000FC0FFF8
0003F0000001F8000FC0FFF8
0007F0000001FC000FC07FF8
000FE0000000FFF00FC03FF0
007FE0000000FFFE0FC00000
00FFE0000000FFFF0FC00000
03FFE0000000FFFFDFC00000
07FFE0000000FFFFFF800000
0FFF800000007FFFFF800000
1FF800000000001FFF000000
1FE0000000000007FF000000
3FC0000000000003FE000000
3F80000000000001FC000000
7F00000000000000FE000000
7E000000000000007E000000
FE000000000000007E000000
FC0000003FF800003F000000
FC0000003FF800003F000000
FC0000007FF000003F000000
FC0000007FF000003F000000
FC000000FFE000003F060000
FC000000FFE000003F0F8000
FC000000FFC000003F1FC000
FE000001FFC000007F1FE000
7E000001FF8000007E0FE000
7E000001FF8000007E0FE000
7F000003FF000000FE07E000
3F800003FE000001FC03C000
3FC00007FE000003FC000000
1FF00007FC00000FF8000000
0FFC0007FC00003FF0000000
07FF800FFFFC01FFE0000000
03FF800FFFF801FFC0000000
01FF800FFFF001FF80000000
00FF801FFFF001FF00000000
003F801FFFE001FC00000000
0007801FFFC001E000000000
000000003FC0000000000000
000000003F80000000000000
000000003F00000000000000
000000007F00000000000000
000000007E00000000000000
00000000FC00000000000000
00000000FC00000000000000
00000000F800000000000000
00000001F000000000000000
00000001F000000000000000
00000003E000000000000000
00000003C000000000000000
000000038000000000000000
000000078000000000000000
000000070000000000000000
000000060000000000000000
0000000E0000000000000000
0000000C0000000000000000
000000180000000000000000
000000180000000000000000
000000100000000000000000
000000200000000000000000
ENDCHAR
STARTCHAR 0035
ENCODING 53
SWIDTH 1245 0
DWIDTH 83 0
BBX 83 77 0 -5
BITMAP
0000000000700000000000
0000000000F80000000000
0000000001FC0000000000
0000000001FC0000000000
0000000001FC0000000000
0000000001FC0000000000
0000000001FC0000000000
0000000001FC0000000000
0000000001FC0000000000
0000000001FC0000000000
0000000001FC0000000000
0000000001FC0000000000
0007800001FC00000F0000
000FC00000F800001F8000
000FE000007000003F8000
000FF000000000007F8000
000FF80000000000FF8000
0007FC0000000001FF0000
0003FE0000000003FE0000
0003FF0000000007FC0000
0001FF0000000007F80000
0000FF0000000007F00000
00007F0007FE0007E00000
00003E003FFFC003C00000
00000000FFFFF000000000
00000001FFFFFC00000000
00000007FFFFFE00000000
0000000FFFFFFF80000000
0000001FFFFFFFC0000000
0000003FF800FFE0000000
0000003FE0003FE0000000
0000007FC0001FF0000000
000000FF80000FF8000000
000000FF000007F8000000
000001FE000003FC000000
000001FC000003FC000000
000001FC000001FC000000
000003F8000001FE000000
000003F8000000FE000000
3FE003F8000000FE00FF80
7FF003F8000000FE01FFC0
FFF803F0000000FE03FFE0
FFF803FF800000FE03FFE0
FFF803FFE00000FE03FFE0
FFF007FFF80000FE01FFC0
3FE01FFFFC0000FE00FF80
00003FFFFE0000FE000000
00007FFFFF0000FE000000
00007FFFFF8001FC000000
0000FF80FFC001FC000000
0000FF003FC003FC000000
0001FE001FE007F8000000
0001FC000FFC0FF8000000
0007FC000FFF1FF0000000
001FF8000FFFFFF0000000
003FF80007FFFFE0000000
007FF80007FFFFC0000000
00FFF80007FFFF80000000
00FFF00007FFFF00000000
01FF00000007FE00000000
01FC00000003FC00000000
03FC00000001FC01C00000
03F800000000FE03E00000
03F800000000FE07F00000
03F800000000FE07F80000
03F800000000FE07FC0000
03F800000001FC03FE0000
01FC00000001FC01FF0000
01FE00000003FC00FF8000
01FF0000000FF8007F8000
00FFFFFFFFFFF8003F8000
007FFFFFFFFFF0001F8000
007FFFFFFFFFF0000F8000
003FFFFFFFFFE000060000
000FFFFFFFFF8000000000
0007FFFFFFFF0000000000
00007FFFFFF00000000000
ENDCHAR
STARTCHAR 0036
ENCODING 54
SWIDTH 1110 0
DWIDTH 74 0
BBX 74 74 0 -12
BITMAP
000000001E0000000000
000000003E0000000000
000000003F0000000000
000000003F0000000000
000000003F0000000000
000000003F0000000000
000000003F0000000000
000000003F0000000000
000000003F0000000000
000000003F0000000000
001E00003F00001E0000
003F00003E00003F0000
003F80001C00007F0000
003FC000000000FF0000
003FE000000001FE0000
001FF000000003FE0000
000FF000000007FC0000
0007F800000007F00000
0003F800000007E00000
0001F000FFC007C00000
00006007FFF001800000
0000001FFFFC00000000
0000003FFFFF00000000
0000007FFFFF80000000
000000FFFFFFC0000000
000001FF807FE0000000
000003FE001FF0000000
000007F80007F0000000
000007F00003F8000000
00000FE00001F8000000
00000FC00001FC000000
00000FC00000FC000000
00001F800000FC000000
00001F8000007E000000
7FF01F8000007E03FF80
FFF81F8000007E07FF80
FFF81F8000007E07FFC0
FFF81F8000007E07FFC0
FFF01F8000007E07FF80
3FE01F8000007E03FF00
00001F8000007E000000
00001FC00000FC000000
00000FC00000FC000000
00000FE00001FC000000
00000FE00001F8000000
000007F00003F8000000
000003F80007F0000000
000003FE001FF0000000
000001FF807FE0000000
000000FFFFFFC0000000
0000007FFFFF80000000
0000003FFFFF00000000
0000000FFFFC00000000
0000E003FFF003800000
0001F0007F8007E00000
0003F800000007F00000
0007F800000007F80000
000FF000000007FC0000
001FF000000003FE0000
003FE000000001FE0000
003FC000000000FF0000
003F80001E00007F0000
003F00003F00003E0000
000C00003F00000C0000
000000003F0000000000
000000003F0000000000
000000003F0000000000
000000003F0000000000
000000003F0000000000
000000003F0000000000
000000003F0000000000
000000003F0000000000
000000003E0000000000
000000000C0000000000
ENDCHAR
STARTCHAR 0037
ENCODING 55
SWIDTH 1080 0
DWIDTH 72 0
BBX 72 71 0 -21
BITMAP
00000007FC00000000
0000003FFF80000000
000000FFFFE0000000
000003FFFFF8000000
000007FFFFFC000000
00001FFFFFFE000000
00003FF803FF800000
00007FE000FF800000
00007F80003FC00000
0000FF00001FE00000
0001FE00000FF00000
0001FC000007F00000
0003F8000003F00000
0003F8000003F80000
0003F0000001F80000
0007F0000001FC0000
000FE0000000FFE000
003FE0000000FFFC00
00FFE0000000FFFF00
03FFE0000000FFFF80
07FFE0000000FFFFC0
0FFFC00000007FFFE0
0FF800000000001FF0
1FE0000000000007F8
3FC0000000000003FC
3F80000000000001FC
7F00000000000000FE
7E000000000000007E
7E000000000000007E
FC000000000000003F
FC000000000000003F
FC000000000000003F
FC000000000000003F
FC000030000020003F
FC00007C0000F8003F
FC0000FC0000F8003F
FC0000FC0000FC007F
7E0000FC0001F8007E
7E0000FC0001F8007E
7F0000F80001F800FE
3F8000F80001F001FC
3FC000F00000F003FC
1FE0000000000007F8
0FF800000000001FF0
0FFF80001C0001FFE0
07FF83E03E07C1FFC0
01FF83E07E07C1FF80
00FF87E07E07C1FF00
003F83E07E07C1FC00
000783C07E0381E000
00000000FC00000000
000000007C00000000
000002007800000000
00000F00001F000000
00001F80001F000000
00001F80C03F000000
00001F81E03F000000
00001F83F03F000000
00001F83F03F000000
00000F01F01E000000
00000000E00C000000
000000000000000000
000000000000000000
000000030000000000
000000078000000000
0000000FC000000000
0000000FC000000000
0000000FC000000000
0000000FC000000000
0000000F8000000000
000000078000000000
ENDCHAR
STARTCHAR 0038
ENCODING 56
SWIDTH 1080 0
DWIDTH 72 0
BBX 72 70 0 -20
BITMAP
00000007FC00000000
0000003FFF80000000
000000FFFFF0000000
000003FFFFF8000000
000007FFFFFC000000
00001FFFFFFF000000
00003FF803FF800000
00007FE000FFC00000
00007F80003FC00000
0000FF00001FE00000
0001FE00000FF00000
0001FC000007F00000
0003F8000003F80000
0003F8000001F80000
0003F0000001F80000
0007F0000001FC0000
000FE0000000FFF000
003FE0000000FFFC00
00FFE0000000FFFF00
03FFE0000000FFFFC0
07FFE0000000FFFFE0
0FFFC00000007FFFF0
1FF800000000001FF0
1FE0000000000007F8
3FC0000000000003FC
3F80000000000001FC
7F00000000000000FE
7E000000000000007E
FE000000000000007E
FC000000000000003F
FC000000000000003F
FC000000000000003F
FC000000000000003F
FC000030030030003F
FC00007C0F80F8003F
FC0000FC0FC0F8003F
FC0000FC0FC1FC003F
7E0000FC0FC1F8007E
7E0001FC1F81F8007E
7F0001F81F81F800FE
3F8001F81F83F001FC
3FC001F83F83F003FC
1FE003F83F03F007F8
0FF803F03F03F01FF0
07FF83F03F07E1FFE0
03FF83F07E07E1FFE0
01FF87E07E07E1FF80
00FF87E07E0FC1FF00
003F87E07E0FC1FC00
00078FE0FC0FC1E000
00000FC0FC0FC00000
00000FC0FC1F800000
00000FC1F81F800000
00001F81F81F800000
00001F81F83F000000
00001F81F83F000000
00001F83F03F000000
00001F03F03F000000
00000E03F01E000000
00000007F000000000
00000007E000000000
00000007E000000000
00000007E000000000
0000000FC000000000
0000000FC000000000
0000000FC000000000
0000000FC000000000
0000000F8000000000
0000000F8000000000
000000020000000000
ENDCHAR
STARTCHAR 0039
ENCODING 57
SWIDTH 1155 0
DWIDTH 77 0
BBX 77 51 0 0
BITMAP
00000000000180000000
00000000003FFC000000
0000000000FFFF000000
0000000003FFFF800000
0000000007FFFFC00000
000000000FFFFFF00000
000000000FE007F00000
0000000003C003F80000
000000FF808001FC0000
000007FFF00000FC0000
00000FFFFC00007E0000
00003FFFFE00003E0000
00007FFFFF80003F8000
0000FF807FC0003FF800
0001FE001FE0001FFE00
0003F8000FE0001FFF00
0003F00003F0001FFF80
0007E00001F80000FFC0
0007C00001F800000FE0
000FC00000F8000007F0
000F800000FC000003F0
000F8000007E000001F8
007F8000007FF80001F8
01FF0000007FFE0000F8
03FF0000007FFF0000F8
07FF0000003FFF8000F8
0FFC0000003FFFC000F8
1FC0000000001FE000F8
3F800000000007F000F8
3F000000000003F001F8
7E000000000001F803F0
7C000000000000F803F0
FC000000000000F80FE0
F8000000000000FC3FE0
F80000000000007CFFC0
F80000000000007CFF80
F80000000000007CFE00
F80000000000007CFC00
F80000000000007CE000
FC000000000000F80000
7C000000000000F80000
7E000000000001F80000
7E000000000003F00000
3F000000000007F00000
1FC0000000000FE00000
1FF0000000003FE00000
0FFFFFFFFFFFFFC00000
07FFFFFFFFFFFF800000
01FFFFFFFFFFFE000000
00FFFFFFFFFFFC000000
001FFFFFFFFFE0000000
ENDCHAR
STARTCHAR 003A
ENCODING 58
SWIDTH 270 0
DWIDTH 18 0
BBX 8 31 4 0
BITMAP
1C
3C
7E
FF
FF
7F
3E
1C
08
00
00
00
00
00
00
00
00
00
00
00
00
00
08
1C
3E
7F
FF
7F
7E
3C
18
ENDCHAR
STARTCHAR 003C
ENCODING 60
SWIDTH 495 0
DWIDTH 33 0
BBX 27 33 3 6
BITMAP
00000020
000000E0
000003E0
00000FE0
00001FE0
00007FC0
0001FF80
0007FE00
000FF800
003FE000
00FFC000
01FF0000
07FC0000
1FF00000
7FE00000
FF800000
FE000000
FF000000
7FC00000
3FF00000
0FF80000
03FE0000
00FF8000
007FE000
001FF800
0007FC00
0001FF00
0000FFC0
00003FE0
00000FE0
000003E0
000001E0
00000060
ENDCHAR
STARTCHAR 003D
ENCODING 61
SWIDTH 495 0
DWIDTH 33 0
BBX 27 15 3 16
BITMAP
FFFFFFE0
FFFFFFE0
FFFFFFE0
FFFFFFE0
FFFFFFE0
00000000
00000000
00000000
00000000
00000000
FFFFFFE0
FFFFFFE0
FFFFFFE0
FFFFFFE0
FFFFFFE0
ENDCHAR
STARTCHAR 003E
ENCODING 62
SWIDTH 495 0
DWIDTH 33 0
BBX 27 33 3 6
BITMAP
80000000
E0000000
F8000000
FE000000
FF000000
7FC00000
3FF00000
0FFC0000
03FE0000
00FF8000
007FE000
001FF000
0007FC00
0001FF00
0000FFC0
00003FE0
00000FE0
00001FE0
00007FC0
0001FF80
0003FE00
000FF800
003FE000
00FFC000
03FF0000
07FC0000
1FF00000
7FE00000
FF800000
FE000000
F8000000
F0000000
C0000000
ENDCHAR
STARTCHAR 003F
ENCODING 63
SWIDTH 360 0
DWIDTH 24 0
BBX 18 47 4 0
BITMAP
01C000
0FFC00
3FFE00
70FF00
C03F80
801F80
001F80
000FC0
000FC0
000FC0
000F80
001F80
001F80
001F00
003F00
003E00
007E00
007C00
00F800
00F000
01E000
01E000
03C000
038000
070000
070000
060000
0E0000
0C0000
0C0000
0C0000
040000
060000
060000
060000
020000
000000
000000
000000
070000
0F8000
1FC000
1FE000
1FE000
0FC000
078000
030000
ENDCHAR
STARTCHAR 0040
ENCODING 64
SWIDTH 990 0
DWIDTH 66 0
BBX 58 61 3 -14
BITMAP
0000000F80000000
000003FFFE000000
00001F803FC00000
00007C0003F00000
0001F00000FC0000
0007C000003E0000
000F8000001F8000
001E0000000FC000
003C00000007E000
007800000003F000
00F000000001F800
01F000000000FC00
03E0000000007C00
07C0000000007E00
07C0007E00003E00
0F8003E7C0003F00
0F800780F0001F00
1F00070078001F80
1F0006007C001F80
3E0006007C000F80
3E0006003C000FC0
3E0000003C000FC0
7E0000007C000FC0
7C000000FC000FC0
7C000001BC0007C0
7C00001F3C0007C0
FC0001FC3C0007C0
FC0003C03C0007C0
FC000F803C0007C0
FC001F003C000FC0
FC001E003C000FC0
FC003C003C000FC0
FC003C003C000F80
FC007C003C000F80
7C007C003C001F80
7C007C003C001F00
7C007C003C001F00
7C007C003C003E00
7E007C003C003C00
3E003C003C007800
3E003E007C00F800
3F001E007C01E000
1F000F007E03C000
1F000780FE0F8000
0F8003E1E7FE0000
0F8000FFC3F80000
07C0001E00000000
07E0000000000000
03E0000000000000
01F0000000000000
00F8000000000000
007C000000000000
003E000000000000
001F000000018000
000F800000078000
0003E000001F0000
0001F800007C0000
00007E0001F00000
00001FC01FC00000
000003FFFE000000
0000000700000000
ENDCHAR
STARTCHAR 0041
ENCODING 65
SWIDTH 750 0
DWIDTH 50 0
BBX 0 0 0 0
BITMAP
ENDCHAR
STARTCHAR 0042
ENCODING 66
SWIDTH 600 0
DWIDTH 40 0
BBX 0 0 0 0
BITMAP
ENDCHAR
STARTCHAR 0043
ENCODING 67
SWIDTH 690 0
DWIDTH 46 0
BBX 0 0 0 0
BITMAP
ENDCHAR
STARTCHAR 0044
ENCODING 68
SWIDTH 735 0
DWIDTH 49 0
BBX 0 0 0 0
BITMAP
ENDCHAR
STARTCHAR 0045
ENCODING 69
SWIDTH 555 0
DWIDTH 37 0
BBX 0 0 0 0
BITMAP
ENDCHAR
STARTCHAR 0046
ENCODING 70
SWIDTH 525 0
DWIDTH 35 0
BBX 0 0 0 0
BITMAP
ENDCHAR
STARTCHAR 0047
ENCODING 71
SWIDTH 720 0
DWIDTH 48 0
BBX 0 0 0 0
BITMAP
ENDCHAR
STARTCHAR 0048
ENCODING 72
SWIDTH 765 0
DWIDTH 51 0
BBX 0 0 0 0
BITMAP
ENDCHAR
STARTCHAR 0049
ENCODING 73
SWIDTH 315 0
DWIDTH 21 0
BBX 0 0 0 0
BITMAP
ENDCHAR
STARTCHAR 004A
ENCODING 74
SWIDTH 315 0
DWIDTH 21 0
BBX 0 0 0 0
BITMAP
ENDCHAR
STARTCHAR 004B
ENCODING 75
SWIDTH 675 0
DWIDTH 45 0
BBX 0 0 0 0
BITMAP
ENDCHAR
STARTCHAR 004C
ENCODING 76
SWIDTH 555 0
DWIDTH 37 0
BBX 0 0 0 0
BITMAP
ENDCHAR
STARTCHAR 004D
ENCODING 77
SWIDTH 885 0
DWIDTH 59 0
BBX 0 0 0 0
BITMAP
ENDCHAR
STARTCHAR 004E
ENCODING 78
SWIDTH 765 0
DWIDTH 51 0
BBX 0 0 0 0
BITMAP
ENDCHAR
STARTCHAR 004F
ENCODING 79
SWIDTH 795 0
DWIDTH 53 0
BBX 0 0 0 0
BITMAP
ENDCHAR
STARTCHAR 0050
ENCODING 80
SWIDTH 540 0
DWIDTH 36 0
BBX 0 0 0 0
BITMAP
ENDCHAR
STARTCHAR 0051
ENCODING 81
SWIDTH 795 0
DWIDTH 53 0
BBX 0 0 0 0
BITMAP
ENDCHAR
STARTCHAR 0052
ENCODING 82
SWIDTH 630 0
DWIDTH 42 0
BBX 0 0 0 0
BITMAP
ENDCHAR
STARTCHAR 0053
ENCODING 83
SWIDTH 525 0
DWIDTH 35 0
BBX 0 0 0 0
BITMAP
ENDCHAR
STARTCHAR 0054
ENCODING 84
SWIDTH 660 0
DWIDTH 44 0
BBX 0 0 0 0
BITMAP
ENDCHAR
STARTCHAR 0055
ENCODING 85
SWIDTH 735 0
DWIDTH 49 0
BBX 0 0 0 0
BITMAP
ENDCHAR
STARTCHAR 0056
ENCODING 86
SWIDTH 705 0
DWIDTH 47 0
BBX 0 0 0 0
BITMAP
ENDCHAR
STARTCHAR 0057
ENCODING 87
SWIDTH 990 0
DWIDTH 66 0
BBX 0 0 0 0
BITMAP
ENDCHAR
STARTCHAR 0058
ENCODING 88
SWIDTH 660 0
DWIDTH 44 0
BBX 0 0 0 0
BITMAP
ENDCHAR
STARTCHAR 0059
ENCODING 89
SWIDTH 600 0
DWIDTH 40 0
BBX 0 0 0 0
BITMAP
ENDCHAR
STARTCHAR 005A
ENCODING 90
SWIDTH 555 0
DWIDTH 37 0
BBX 0 0 0 0
BITMAP
ENDCHAR
STARTCHAR 005B
ENCODING 91
SWIDTH 375 0
DWIDTH 25 0
BBX 0 0 0 0
BITMAP
ENDCHAR
STARTCHAR 005C
ENCODING 92
SWIDTH 285 0
DWIDTH 19 0
BBX 0 0 0 0
BITMAP
ENDCHAR
STARTCHAR 005D
ENCODING 93
SWIDTH 375 0
DWIDTH 25 0
BBX 0 0 0 0
BITMAP
ENDCHAR
STARTCHAR 005E
ENCODING 94
SWIDTH 495 0
DWIDTH 33 0
BBX 0 0 0 0
BITMAP
ENDCHAR
STARTCHAR 005F
ENCODING 95
SWIDTH 495 0
DWIDTH 33 0
BBX 33 2 0 -5
BITMAP
FFFFFFFF80
FFFFFFFF80
ENDCHAR
STARTCHAR 0060
ENCODING 96
SWIDTH 495 0
DWIDTH 33 0
BBX 15 12 7 35
BITMAP
6000
F800
FC00
FE00
7F00
3F80
0FC0
03E0
01F0
0078
003C
000E
ENDCHAR
STARTCHAR 0061
ENCODING 97
SWIDTH 450 0
DWIDTH 30 0
BBX 0 0 0 0
BITMAP
ENDCHAR
STARTCHAR 0062
ENCODING 98
SWIDTH 480 0
DWIDTH 32 0
BBX 0 0 0 0
BITMAP
ENDCHAR
STARTCHAR 0063
ENCODING 99
SWIDTH 435 0
DWIDTH 29 0
BBX 0 0 0 0
BITMAP
ENDCHAR
STARTCHAR 0064
ENCODING 100
SWIDTH 510 0
DWIDTH 34 0
BBX 0 0 0 0
BITMAP
ENDCHAR
STARTCHAR 0065
ENCODING 101
SWIDTH 450 0
DWIDTH 30 0
BBX 0 0 0 0
BITMAP
ENDCHAR
STARTCHAR 0066
ENCODING 102
SWIDTH 270 0
DWIDTH 18 0
BBX 0 0 0 0
BITMAP
ENDCHAR
STARTCHAR 0067
ENCODING 103
SWIDTH 435 0
DWIDTH 29 0
BBX 0 0 0 0
BITMAP
ENDCHAR
STARTCHAR 0068
ENCODING 104
SWIDTH 540 0
DWIDTH 36 0
BBX 0 0 0 0
BITMAP
ENDCHAR
STARTCHAR 0069
ENCODING 105
SWIDTH 255 0
DWIDTH 17 0
BBX 0 0 0 0
BITMAP
ENDCHAR
STARTCHAR 006A
ENCODING 106
SWIDTH 255 0
DWIDTH 17 0
BBX 0 0 0 0
BITMAP
ENDCHAR
STARTCHAR 006B
ENCODING 107
SWIDTH 495 0
DWIDTH 33 0
BBX 0 0 0 0
BITMAP
ENDCHAR
STARTCHAR 006C
ENCODING 108
SWIDTH 255 0
DWIDTH 17 0
BBX 0 0 0 0
BITMAP
ENDCHAR
STARTCHAR 006D
ENCODING 109
SWIDTH 765 0
DWIDTH 51 0
BBX 0 0 0 0
BITMAP
ENDCHAR
STARTCHAR 006E
ENCODING 110
SWIDTH 540 0
DWIDTH 36 0
BBX 0 0 0 0
BITMAP
ENDCHAR
STARTCHAR 006F
ENCODING 111
SWIDTH 495 0
DWIDTH 33 0
BBX 0 0 0 0
BITMAP
ENDCHAR
STARTCHAR 0070
ENCODING 112
SWIDTH 495 0
DWIDTH 33 0
BBX 0 0 0 0
BITMAP
ENDCHAR
STARTCHAR 0071
ENCODING 113
SWIDTH 495 0
DWIDTH 33 0
BBX 0 0 0 0
BITMAP
ENDCHAR
STARTCHAR 0072
ENCODING 114
SWIDTH 345 0
DWIDTH 23 0
BBX 0 0 0 0
BITMAP
ENDCHAR
STARTCHAR 0073
ENCODING 115
SWIDTH 345 0
DWIDTH 23 0
BBX 0 0 0 0
BITMAP
ENDCHAR
STARTCHAR 0074
ENCODING 116
SWIDTH 330 0
DWIDTH 22 0
BBX 0 0 0 0
BITMAP
ENDCHAR
STARTCHAR 0075
ENCODING 117
SWIDTH 510 0
DWIDTH 34 0
BBX 0 0 0 0
BITMAP
ENDCHAR
STARTCHAR 0076
ENCODING 118
SWIDTH 480 0
DWIDTH 32 0
BBX 0 0 0 0
BITMAP
ENDCHAR
STARTCHAR 0077
ENCODING 119
SWIDTH 690 0
DWIDTH 46 0
BBX 0 0 0 0
BITMAP
ENDCHAR
STARTCHAR 0078
ENCODING 120
SWIDTH 495 0
DWIDTH 33 0
BBX 0 0 0 0
BITMAP
ENDCHAR
STARTCHAR 0079
ENCODING 121
SWIDTH 420 0
DWIDTH 28 0
BBX 0 0 0 0
BITMAP
ENDCHAR
STARTCHAR 007A
ENCODING 122
SWIDTH 360 0
DWIDTH 24 0
BBX 0 0 0 0
BITMAP
ENDCHAR
STARTCHAR 007B
ENCODING 123
SWIDTH 495 0
DWIDTH 33 0
BBX 21 59 8 -8
BITMAP
0007F8
000F00
003C00
003800
007800
007800
007800
007800
007800
007800
007800
007800
007800
007800
007800
007800
007800
007800
007800
007800
007800
007800
007800
00F800
00F000
01F000
01E000
07C000
FF8000
FF0000
1FC000
03E000
01E000
00F000
00F000
007800
007800
007800
007800
007800
007800
007800
007800
007800
007800
007800
007800
007800
007800
007800
007800
007800
007800
007800
007800
003C00
001E00
000FF8
0001F8
ENDCHAR
STARTCHAR 007C
ENCODING 124
SWIDTH 495 0
DWIDTH 33 0
BBX 5 65 14 -14
BITMAP
F8
F8
F8
F8
F8
F8
F8
F8
F8
F8
F8
F8
F8
F8
F8
F8
F8
F8
F8
F8
F8
F8
F8
F8
F8
F8
F8
F8
F8
F8
F8
F8
F8
F8
F8
F8
F8
F8
F8
F8
F8
F8
F8
F8
F8
F8
F8
F8
F8
F8
F8
F8
F8
F8
F8
F8
F8
F8
F8
F8
F8
F8
F8
F8
F8
ENDCHAR
STARTCHAR 007D
ENCODING 125
SWIDTH 495 0
DWIDTH 33 0
BBX 21 59 4 -8
BITMAP
FF0000
078000
01E000
00E000
00F000
00F000
00F000
00F000
00F000
00F000
00F000
00F000
00F000
00F000
00F000
00F000
00F000
00F000
00F000
00F000
00F000
00F000
00F000
00F800
007800
007C00
003C00
001F00
000FF8
0007F8
001FC0
003E00
003C00
007800
007800
00F000
00F000
00F000
00F000
00F000
00F000
00F000
00F000
00F000
00F000
00F000
00F000
00F000
00F000
00F000
00F000
00F000
00F000
00F000
00F000
01E000
03C000
FF8000
FC0000
ENDCHAR
STARTCHAR 007E
ENCODING 126
SWIDTH 495 0
DWIDTH 33 0
BBX 27 9 3 19
BITMAP
00000020
0FE00060
1FFC00E0
7FFF83E0
FFFFFFE0
FE7FFFC0
F00FFF80
C001FE00
80000000
ENDCHAR
STARTCHAR 00A0
ENCODING 160
SWIDTH 255 0
DWIDTH 17 0
BBX 0 0 0 0
BITMAP
ENDCHAR
STARTCHAR 00A1
ENCODING 161
SWIDTH 330 0
DWIDTH 22 0
BBX 0 0 0 0
BITMAP
ENDCHAR
STARTCHAR 00A2
ENCODING 162
SWIDTH 555 0
DWIDTH 37 0
BBX 0 0 0 0
BITMAP
ENDCHAR
STARTCHAR 00A3
ENCODING 163
SWIDTH 495 0
DWIDTH 33 0
BBX 28 47 2 0
BITMAP
000FFF80
003FFFE0
00FE0FE0
01F801E0
03F000E0
07E00060
07C00000
0F800000
0F800000
0F800000
1F000000
1F000000
1F000000
1F000000
1F000000
1F000000
1F000000
1F000000
1F800000
0F800000
0F800000
0F800000
07C00000
FFFFFC00
FFFFFC00
03E00000
03E00000
01F00000
01F00000
00F80000
00F80000
00F80000
00F80000
00F80000
01F00000
01F00000
01F00000
01E00000
03E00000
03C00010
07C00030
0F800030
0F800060
1F0001E0
3FFFFFC0
3FFFFFC0
3FFFFF80
ENDCHAR
STARTCHAR 00A4
ENCODING 164
SWIDTH 495 0
DWIDTH 33 0
BBX 25 25 4 11
BITMAP
20000200
70000700
F83F0F80
7DFFDF00
3FFFFE00
1FF7FC00
0F80F800
1E003C00
1E003C00
3C001E00
3C001E00
38000E00
38000E00
38000E00
3C001E00
3C001E00
1C001C00
1E003C00
0F007800
1FC1FC00
3FFFFE00
7DFFDF00
F87F0F80
70000700
20000200
ENDCHAR
STARTCHAR 00A5
ENCODING 165
SWIDTH 615 0
DWIDTH 41 0
BBX 41 39 0 0
BITMAP
FFFE000FFF80
3FFE0007FF00
0FE00000FC00
07E00000F000
03E00000E000
01F00001E000
01F80003C000
00F800078000
007C00070000
007E000E0000
003E001E0000
001F001C0000
000F80380000
7FFFC07FFF00
0007C0600000
0003E0C00000
0001E1C00000
0001F3800000
0000FF000000
00007E000000
7FFFFFFFFF00
3FFFFFFFFF00
00003C000000
00003C000000
00003C000000
00003C000000
00003C000000
00003C000000
00003C000000
00003C000000
00003C000000
00003C000000
00003C000000
00003C000000
00003C000000
00007C000000
00007E000000
0003FFE00000
000FFFF80000
ENDCHAR
STARTCHAR 00A6
ENCODING 166
SWIDTH 495 0
DWIDTH 33 0
BBX 5 65 14 -14
BITMAP
F8
F8
F8
F8
F8
F8
F8
F8
F8
F8
F8
F8
F8
F8
F8
F8
F8
F8
F8
F8
F8
F8
F8
F8
F8
00
00
00
00
00
00
00
00
00
00
00
00
00
00
F8
F8
F8
F8
F8
F8
F8
F8
F8
F8
F8
F8
F8
F8
F8
F8
F8
F8
F8
F8
F8
F8
F8
F8
F8
F8
ENDCHAR
STARTCHAR 00A7
ENCODING 167
SWIDTH 495 0
DWIDTH 33 0
BBX 21 61 6 -14
BITMAP
03FF80
0FFFE0
3C0FE0
3803E0
7001E0
F000E0
E00060
E00060
F00000
F00000
F80000
FC0000
FE0000
FF0000
FFC000
7FF000
3FFC00
1FFF00
0FFF80
07FFC0
01FFE0
03FFF0
0FFFF0
1E0FF8
3803F8
7001F8
7000F8
F00078
F00078
F00078
F00078
F80070
FC0070
FE00F0
FF01E0
7FC3C0
7FFF80
3FFF00
1FFF00
0FFF80
07FFC0
01FFE0
007FF0
001FF8
000FF8
0003F8
0001F8
0000F8
000078
000078
000038
000078
C00078
C00070
C000F0
E000E0
F001E0
FC07C0
FFFF00
7FFC00
00C000
ENDCHAR
STARTCHAR 00A8
ENCODING 168
SWIDTH 495 0
DWIDTH 33 0
BBX 19 8 7 37
BITMAP
100100
380380
7C07C0
FE0FE0
FE0FE0
7C07C0
380380
100100
ENDCHAR
STARTCHAR 00A9
ENCODING 169
SWIDTH 825 0
DWIDTH 55 0
BBX 48 48 3 -1
BITMAP
00003FFE0000
0001FFFFC000
0007C001F000
001E00007800
003800001E00
00F000000700
01C000000380
0380000101C0
03001FFF80E0
0600780F8070
0C01E0038030
1C03C000C018
18078000C01C
380F0000600C
301F0000000C
301E00000006
603E00000006
603C00000006
607C00000003
607C00000003
C07800000003
C07800000003
C0F800000003
C0F800000003
C0F800000003
C07800000003
C07C00000003
607C00000003
607C00000003
603C00000006
603E00000006
303E00000006
301F0000300E
380F8000300C
18078000301C
1C03C0007018
0C01F000F030
06007C03E070
07001FFF80E0
038003F001C0
01C000000380
00E000000700
007800000E00
001E00003C00
000F8001F000
0003FE7FC000
00007FFE0000
000001800000
ENDCHAR
STARTCHAR 00AB
ENCODING 171
SWIDTH 465 0
DWIDTH 31 0
BBX 21 19 6 6
BITMAP
002008
006018
01C030
038060
0701E0
0F03C0
1E0780
3C0F00
781E00
F83E00
781F00
3C0F00
1E0780
0F03C0
0780E0
018060
00C030
006018
002008
ENDCHAR
STARTCHAR 00AC
ENCODING 172
SWIDTH 495 0
DWIDTH 33 0
BBX 27 16 3 9
BITMAP
FFFFFFE0
FFFFFFE0
FFFFFFE0
000000E0
000000E0
000000E0
000000E0
000000E0
000000E0
000000E0
000000E0
000000E0
000000E0
000000E0
000000E0
000000E0
ENDCHAR
STARTCHAR 00AD
ENCODING 173
SWIDTH 330 0
DWIDTH 22 0
BBX 14 5 4 13
BITMAP
FFFC
FFFC
FFFC
FFFC
FFFC
ENDCHAR
STARTCHAR 00AE
ENCODING 174
SWIDTH 825 0
DWIDTH 55 0
BBX 48 48 3 -1
BITMAP
00003FFE0000
0001FFFFC000
0007C001F000
001E00007800
003800001E00
00F000000700
01C000000380
0380000001C0
0300000000E0
0603FFF00070
0C03FFFC0030
1C00F83E0018
1800F81F001C
3800780F000C
3000780F800C
300078078006
60007807C006
60007807C006
60007807C003
60007807C003
C0007807C003
C0007807C003
C00078078003
C00078078003
C0007C0F0003
C0007E0F0003
C0007F1E0003
60007FFC0003
600079F80003
6000787C0006
6000787E0006
3000783E0006
3000781F000E
3800780F800C
18007C0FC01C
1C00FC07E018
0C00FC0FF030
0603FF3FFC70
0700000000E0
0380000001C0
01C000000380
00E000000700
007800000E00
001E00003C00
000F8001F000
0003FE7FC000
00007FFE0000
000001800000
ENDCHAR
STARTCHAR 00AF
ENCODING 175
SWIDTH 330 0
DWIDTH 22 0
BBX 0 0 0 0
BITMAP
ENDCHAR
STARTCHAR 00B0
ENCODING 176
SWIDTH 330 0
DWIDTH 22 0
BBX 18 18 2 29
BITMAP
03F000
0FFC00
1F1E00
380700
700380
600180
E001C0
C000C0
C000C0
C000C0
C000C0
E001C0
600180
700380
380700
1E1E00
0FFC00
07F000
ENDCHAR
STARTCHAR 00B1
ENCODING 177
SWIDTH 495 0
DWIDTH 33 0
BBX 0 0 0 0
BITMAP
ENDCHAR
STARTCHAR 00B2
ENCODING 178
SWIDTH 495 0
DWIDTH 33 0
BBX 0 0 0 0
BITMAP
ENDCHAR
STARTCHAR 00B3
ENCODING 179
SWIDTH 495 0
DWIDTH 33 0
BBX 0 0 0 0
BITMAP
ENDCHAR
STARTCHAR 00B4
ENCODING 180
SWIDTH 495 0
DWIDTH 33 0
BBX 14 12 11 35
BITMAP
0018
003C
00FC
00FC
01F8
03F0
07C0
0F80
1E00
3800
7000
C000
ENDCHAR
STARTCHAR 00B5
ENCODING 181
SWIDTH 570 0
DWIDTH 38 0
BBX 0 0 0 0
BITMAP
ENDCHAR
STARTCHAR 00B6
ENCODING 182
SWIDTH 495 0
DWIDTH 33 0
BBX 27 47 3 0
BITMAP
003FFFE0
03FFFFE0
07FFFFE0
1FFE0E00
3FFE0E00
3FFE0E00
7FFE0E00
7FFE0E00
FFFE0E00
FFFE0E00
FFFE0E00
FFFE0E00
FFFE0E00
FFFE0E00
FFFE0E00
7FFE0E00
7FFE0E00
3FFE0E00
3FFE0E00
1FFE0E00
0FFE0E00
03FE0E00
007E0E00
000E0E00
000E0E00
000E0E00
000E0E00
000E0E00
000E0E00
000E0E00
000E0E00
000E0E00
000E0E00
000E0E00
000E0E00
000E0E00
000E0E00
000E0E00
000E0E00
000E0E00
000E0E00
000E0E00
000E0E00
000E0E00
000E0E00
000E0E00
000E0E00
ENDCHAR
STARTCHAR 00B7
ENCODING 183
SWIDTH 255 0
DWIDTH 17 0
BBX 8 8 4 18
BITMAP
1C
3E
7E
FF
FF
7E
3E
1C
ENDCHAR
STARTCHAR 00B8
ENCODING 184
SWIDTH 495 0
DWIDTH 33 0
BBX 13 14 12 -14
BITMAP
0C00
0C00
0800
1F80
1FE0
1FF0
00F8
0078
0078
00F8
C0F0
FFF0
FFE0
0E00
ENDCHAR
STARTCHAR 00B9
ENCODING 185
SWIDTH 495 0
DWIDTH 33 0
BBX 0 0 0 0
BITMAP
ENDCHAR
STARTCHAR 00BA
ENCODING 186
SWIDTH 345 0
DWIDTH 23 0
BBX 0 0 0 0
BITMAP
ENDCHAR
STARTCHAR 00BB
ENCODING 187
SWIDTH 465 0
DWIDTH 31 0
BBX 22 19 3 6
BITMAP
C03000
601800
300C00
380600
1C0780
0E03C0
0781E0
07C0F0
03E0F8
01F07C
03E0F8
07C0F0
0701E0
0E0380
1C0700
380E00
700C00
601800
C03000
ENDCHAR
STARTCHAR 00BC
ENCODING 188
SWIDTH 840 0
DWIDTH 56 0
BBX 0 0 0 0
BITMAP
ENDCHAR
STARTCHAR 00BD
ENCODING 189
SWIDTH 960 0
DWIDTH 64 0
BBX 0 0 0 0
BITMAP
ENDCHAR
STARTCHAR 00BE
ENCODING 190
SWIDTH 840 0
DWIDTH 56 0
BBX 0 0 0 0
BITMAP
ENDCHAR
STARTCHAR 00BF
ENCODING 191
SWIDTH 360 0
DWIDTH 24 0
BBX 0 0 0 0
BITMAP
ENDCHAR
STARTCHAR 00C0
ENCODING 192
SWIDTH 750 0
DWIDTH 50 0
BBX 0 0 0 0
BITMAP
ENDCHAR
STARTCHAR 00C1
ENCODING 193
SWIDTH 750 0
DWIDTH 50 0
BBX 0 0 0 0
BITMAP
ENDCHAR
STARTCHAR 00C2
ENCODING 194
SWIDTH 750 0
DWIDTH 50 0
BBX 0 0 0 0
BITMAP
ENDCHAR
STARTCHAR 00C3
ENCODING 195
SWIDTH 750 0
DWIDTH 50 0
BBX 0 0 0 0
BITMAP
ENDCHAR
STARTCHAR 00C4
ENCODING 196
SWIDTH 750 0
DWIDTH 50 0
BBX 0 0 0 0
BITMAP
ENDCHAR
STARTCHAR 00C5
ENCODING 197
SWIDTH 750 0
DWIDTH 50 0
BBX 0 0 0 0
BITMAP
ENDCHAR
STARTCHAR 00C6
ENCODING 198
SWIDTH 1035 0
DWIDTH 69 0
BBX 0 0 0 0
BITMAP
ENDCHAR
STARTCHAR 00C7
ENCODING 199
SWIDTH 690 0
DWIDTH 46 0
BBX 0 0 0 0
BITMAP
ENDCHAR
STARTCHAR 00C8
ENCODING 200
SWIDTH 555 0
DWIDTH 37 0
BBX 0 0 0 0
BITMAP
ENDCHAR
STARTCHAR 00C9
ENCODING 201
SWIDTH 555 0
DWIDTH 37 0
BBX 0 0 0 0
BITMAP
ENDCHAR
STARTCHAR 00CA
ENCODING 202
SWIDTH 555 0
DWIDTH 37 0
BBX 0 0 0 0
BITMAP
ENDCHAR
STARTCHAR 00CB
ENCODING 203
SWIDTH 555 0
DWIDTH 37 0
BBX 0 0 0 0
BITMAP
ENDCHAR
STARTCHAR 00CC
ENCODING 204
SWIDTH 315 0
DWIDTH 21 0
BBX 0 0 0 0
BITMAP
ENDCHAR
STARTCHAR 00CD
ENCODING 205
SWIDTH 315 0
DWIDTH 21 0
BBX 0 0 0 0
BITMAP
ENDCHAR
STARTCHAR 00CE
ENCODING 206
SWIDTH 315 0
DWIDTH 21 0
BBX 0 0 0 0
BITMAP
ENDCHAR
STARTCHAR 00CF
ENCODING 207
SWIDTH 315 0
DWIDTH 21 0
BBX 0 0 0 0
BITMAP
ENDCHAR
STARTCHAR 00D0
ENCODING 208
SWIDTH 735 0
DWIDTH 49 0
BBX 0 0 0 0
BITMAP
ENDCHAR
STARTCHAR 00D1
ENCODING 209
SWIDTH 765 0
DWIDTH 51 0
BBX 0 0 0 0
BITMAP
ENDCHAR
STARTCHAR 00D2
ENCODING 210
SWIDTH 795 0
DWIDTH 53 0
BBX 0 0 0 0
BITMAP
ENDCHAR
STARTCHAR 00D3
ENCODING 211
SWIDTH 795 0
DWIDTH 53 0
BBX 0 0 0 0
BITMAP
ENDCHAR
STARTCHAR 00D4
ENCODING 212
SWIDTH 795 0
DWIDTH 53 0
BBX 0 0 0 0
BITMAP
ENDCHAR
STARTCHAR 00D5
ENCODING 213
SWIDTH 795 0
DWIDTH 53 0
BBX 0 0 0 0
BITMAP
ENDCHAR
STARTCHAR 00D6
ENCODING 214
SWIDTH 795 0
DWIDTH 53 0
BBX 0 0 0 0
BITMAP
ENDCHAR
STARTCHAR 00D7
ENCODING 215
SWIDTH 495 0
DWIDTH 33 0
BBX 23 23 5 12
BITMAP
100010
380038
7C007C
FE00FE
7F01FC
3F83F8
1FC7F0
0FEFE0
07FFC0
03FF80
01FF00
00FE00
01FF00
03FF80
07FFC0
0FEFE0
1FC7F0
3F83F8
7F01FC
FE00FE
7C007C
380038
100010
ENDCHAR
STARTCHAR 00D8
ENCODING 216
SWIDTH 795 0
DWIDTH 53 0
BBX 0 0 0 0
BITMAP
ENDCHAR
STARTCHAR 00D9
ENCODING 217
SWIDTH 735 0
DWIDTH 49 0
BBX 0 0 0 0
BITMAP
ENDCHAR
STARTCHAR 00DA
ENCODING 218
SWIDTH 735 0
DWIDTH 49 0
BBX 0 0 0 0
BITMAP
ENDCHAR
STARTCHAR 00DB
ENCODING 219
SWIDTH 735 0
DWIDTH 49 0
BBX 0 0 0 0
BITMAP
ENDCHAR
STARTCHAR 00DC
ENCODING 220
SWIDTH 735 0
DWIDTH 49 0
BBX 0 0 0 0
BITMAP
ENDCHAR
STARTCHAR 00DD
ENCODING 221
SWIDTH 600 0
DWIDTH 40 0
BBX 0 0 0 0
BITMAP
ENDCHAR
STARTCHAR 00DE
ENCODING 222
SWIDTH 540 0
DWIDTH 36 0
BBX 0 0 0 0
BITMAP
ENDCHAR
STARTCHAR 00DF
ENCODING 223
SWIDTH 615 0
DWIDTH 41 0
BBX 0 0 0 0
BITMAP
ENDCHAR
STARTCHAR 00E0
ENCODING 224
SWIDTH 450 0
DWIDTH 30 0
BBX 0 0 0 0
BITMAP
ENDCHAR
STARTCHAR 00E1
ENCODING 225
SWIDTH 450 0
DWIDTH 30 0
BBX 0 0 0 0
BITMAP
ENDCHAR
STARTCHAR 00E2
ENCODING 226
SWIDTH 450 0
DWIDTH 30 0
BBX 0 0 0 0
BITMAP
ENDCHAR
STARTCHAR 00E3
ENCODING 227
SWIDTH 450 0
DWIDTH 30 0
BBX 0 0 0 0
BITMAP
ENDCHAR
STARTCHAR 00E4
ENCODING 228
SWIDTH 450 0
DWIDTH 30 0
BBX 0 0 0 0
BITMAP
ENDCHAR
STARTCHAR 00E5
ENCODING 229
SWIDTH 450 0
DWIDTH 30 0
BBX 0 0 0 0
BITMAP
ENDCHAR
STARTCHAR 00E6
ENCODING 230
SWIDTH 705 0
DWIDTH 47 0
BBX 0 0 0 0
BITMAP
ENDCHAR
STARTCHAR 00E7
ENCODING 231
SWIDTH 435 0
DWIDTH 29 0
BBX 0 0 0 0
BITMAP
ENDCHAR
STARTCHAR 00E8
ENCODING 232
SWIDTH 450 0
DWIDTH 30 0
BBX 0 0 0 0
BITMAP
ENDCHAR
STARTCHAR 00E9
ENCODING 233
SWIDTH 450 0
DWIDTH 30 0
BBX 0 0 0 0
BITMAP
ENDCHAR
STARTCHAR 00EA
ENCODING 234
SWIDTH 450 0
DWIDTH 30 0
BBX 0 0 0 0
BITMAP
ENDCHAR
STARTCHAR 00EB
ENCODING 235
SWIDTH 450 0
DWIDTH 30 0
BBX 0 0 0 0
BITMAP
ENDCHAR
STARTCHAR 00EC
ENCODING 236
SWIDTH 255 0
DWIDTH 17 0
BBX 0 0 0 0
BITMAP
ENDCHAR
STARTCHAR 00ED
ENCODING 237
SWIDTH 255 0
DWIDTH 17 0
BBX 0 0 0 0
BITMAP
ENDCHAR
STARTCHAR 00EE
ENCODING 238
SWIDTH 255 0
DWIDTH 17 0
BBX 0 0 0 0
BITMAP
ENDCHAR
STARTCHAR 00EF
ENCODING 239
SWIDTH 255 0
DWIDTH 17 0
BBX 0 0 0 0
BITMAP
ENDCHAR
STARTCHAR 00F0
ENCODING 240
SWIDTH 555 0
DWIDTH 37 0
BBX 0 0 0 0
BITMAP
ENDCHAR
STARTCHAR 00F1
ENCODING 241
SWIDTH 540 0
DWIDTH 36 0
BBX 0 0 0 0
BITMAP
ENDCHAR
STARTCHAR 00F2
ENCODING 242
SWIDTH 495 0
DWIDTH 33 0
BBX 0 0 0 0
BITMAP
ENDCHAR
STARTCHAR 00F3
ENCODING 243
SWIDTH 495 0
DWIDTH 33 0
BBX 0 0 0 0
BITMAP
ENDCHAR
STARTCHAR 00F4
ENCODING 244
SWIDTH 495 0
DWIDTH 33 0
BBX 0 0 0 0
BITMAP
ENDCHAR
STARTCHAR 00F5
ENCODING 245
SWIDTH 495 0
DWIDTH 33 0
BBX 0 0 0 0
BITMAP
ENDCHAR
STARTCHAR 00F6
ENCODING 246
SWIDTH 495 0
DWIDTH 33 0
BBX 0 0 0 0
BITMAP
ENDCHAR
STARTCHAR 00F7
ENCODING 247
SWIDTH 495 0
DWIDTH 33 0
BBX 27 31 3 8
BITMAP
00060000
000F0000
001F0000
003F8000
007FC000
003F8000
001F0000
000E0000
00040000
00000000
00000000
00000000
00000000
FFFFFFE0
FFFFFFE0
FFFFFFE0
FFFFFFE0
FFFFFFE0
00000000
00000000
00000000
00000000
00000000
000E0000
001F0000
003F8000
007FC000
003F8000
001F0000
001F0000
000E0000
ENDCHAR
STARTCHAR 00F8
ENCODING 248
SWIDTH 495 0
DWIDTH 33 0
BBX 0 0 0 0
BITMAP
ENDCHAR
STARTCHAR 00F9
ENCODING 249
SWIDTH 510 0
DWIDTH 34 0
BBX 0 0 0 0
BITMAP
ENDCHAR
STARTCHAR 00FA
ENCODING 250
SWIDTH 510 0
DWIDTH 34 0
BBX 0 0 0 0
BITMAP
ENDCHAR
STARTCHAR 00FB
ENCODING 251
SWIDTH 510 0
DWIDTH 34 0
BBX 0 0 0 0
BITMAP
ENDCHAR
STARTCHAR 00FC
ENCODING 252
SWIDTH 510 0
DWIDTH 34 0
BBX 0 0 0 0
BITMAP
ENDCHAR
STARTCHAR 00FD
ENCODING 253
SWIDTH 420 0
DWIDTH 28 0
BBX 0 0 0 0
BITMAP
ENDCHAR
STARTCHAR 00FE
ENCODING 254
SWIDTH 495 0
DWIDTH 33 0
BBX 0 0 0 0
BITMAP
ENDCHAR
STARTCHAR 00FF
ENCODING 255
SWIDTH 420 0
DWIDTH 28 0
BBX 0 0 0 0
BITMAP
ENDCHAR
STARTCHAR 0131
ENCODING 305
SWIDTH 255 0
DWIDTH 17 0
BBX 14 31 1 0
BITMAP
00C0
01C0
03C0
07C0
1FC0
FFC0
FFC0
1FC0
07C0
07C0
07C0
07C0
07C0
07C0
07C0
07C0
07C0
07C0
07C0
07C0
07C0
07C0
07C0
07C0
07C0
07C0
07C0
0FC0
0FE0
FFFC
FFFC
ENDCHAR
STARTCHAR 02C6
ENCODING 710
SWIDTH 495 0
DWIDTH 33 0
BBX 19 12 7 35
BITMAP
00F000
01F000
03F800
03FC00
07FC00
0FBE00
0F1F00
1E0700
3C0380
3801C0
7000C0
E00060
ENDCHAR
STARTCHAR 02C7
ENCODING 711
SWIDTH 495 0
DWIDTH 33 0
BBX 19 12 7 35
BITMAP
C00060
6000C0
3001C0
3C0380
1E0700
0F0F00
0F9E00
07FC00
03FC00
03F800
01F800
01F000
ENDCHAR
STARTCHAR 02C9
ENCODING 713
SWIDTH 495 0
DWIDTH 33 0
BBX 17 4 8 39
BITMAP
FFFF80
FFFF80
FFFF80
FFFF80
ENDCHAR
STARTCHAR 02D8
ENCODING 728
SWIDTH 495 0
DWIDTH 33 0
BBX 19 9 7 35
BITMAP
C00060
C00060
6000E0
7001C0
3F0FC0
3FFF80
1FFF00
0FFE00
01F800
ENDCHAR
STARTCHAR 02D9
ENCODING 729
SWIDTH 495 0
DWIDTH 33 0
BBX 7 8 13 37
BITMAP
10
38
7C
FE
FE
7C
38
10
ENDCHAR
STARTCHAR 02DA
ENCODING 730
SWIDTH 495 0
DWIDTH 33 0
BBX 11 12 11 35
BITMAP
0600
3F80
7FC0
F0E0
E0E0
C060
C060
E060
E0E0
7FC0
3F80
0F00
ENDCHAR
STARTCHAR 02DB
ENCODING 731
SWIDTH 495 0
DWIDTH 33 0
BBX 12 14 12 -14
BITMAP
0300
0600
0C00
1C00
3800
7000
7000
F000
F000
F010
FC60
7FC0
7F80
0C00
ENDCHAR
STARTCHAR 02DC
ENCODING 732
SWIDTH 495 0
DWIDTH 33 0
BBX 18 8 8 37
BITMAP
0000C0
0700C0
3FE1C0
7FFF80
7FFF80
E1FF00
C03800
C00000
ENDCHAR
STARTCHAR 02DD
ENCODING 733
SWIDTH 495 0
DWIDTH 33 0
BBX 19 12 7 35
BITMAP
0180C0
03C1E0
07C3E0
0FC3E0
0F87C0
1F0780
1E0F00
3C0E00
381E00
701C00
603800
C03000
ENDCHAR
STARTCHAR 037E
ENCODING 894
SWIDTH 270 0
DWIDTH 18 0
BBX 8 41 4 -10
BITMAP
18
3C
7E
FF
FF
7F
3E
1C
08
00
00
00
00
00
00
00
00
00
00
00
00
00
00
1C
3C
7E
FF
FF
7F
1F
1F
0F
0F
0E
0E
0E
1C
18
38
70
60
ENDCHAR
STARTCHAR 2013
ENCODING 8211
SWIDTH 540 0
DWIDTH 36 0
BBX 32 4 2 14
BITMAP
FFFFFFFF
FFFFFFFF
FFFFFFFF
FFFFFFFF
ENDCHAR
STARTCHAR 2014
ENCODING 8212
SWIDTH 1005 0
DWIDTH 67 0
BBX 67 4 0 14
BITMAP
FFFFFFFFFFFFFFFFE0
FFFFFFFFFFFFFFFFE0
FFFFFFFFFFFFFFFFE0
FFFFFFFFFFFFFFFFE0
ENDCHAR
STARTCHAR 2018
ENCODING 8216
SWIDTH 270 0
DWIDTH 18 0
BBX 8 18 6 33
BITMAP
06
0C
18
38
38
70
70
70
F0
F8
F8
FC
FF
FF
7F
7E
3C
18
ENDCHAR
STARTCHAR 2019
ENCODING 8217
SWIDTH 270 0
DWIDTH 18 0
BBX 8 18 4 33
BITMAP
1C
3C
7E
FE
FF
7F
3F
1F
0F
0F
0E
0E
0E
1C
1C
38
70
60
ENDCHAR
STARTCHAR 201A
ENCODING 8218
SWIDTH 270 0
DWIDTH 18 0
BBX 8 18 4 -9
BITMAP
18
3C
7E
FE
FF
FF
3F
1F
0F
0F
0F
0E
0E
1C
1C
18
30
60
ENDCHAR
STARTCHAR 201C
ENCODING 8220
SWIDTH 450 0
DWIDTH 30 0
BBX 20 18 6 33
BITMAP
0600C0
0C01C0
180380
380300
380700
700700
700F00
700F00
F00F00
F80F00
F80F80
FC0FC0
FF0FF0
FF0FF0
7F0FE0
7E07C0
3C0380
180100
ENDCHAR
STARTCHAR 201D
ENCODING 8221
SWIDTH 450 0
DWIDTH 30 0
BBX 20 18 4 33
BITMAP
1C0380
3C07C0
7E07E0
FE0FE0
FF1FE0
7F0FE0
3F03F0
1F01F0
0F01E0
0F01E0
0E00E0
0E01E0
0E01C0
1C01C0
1C0380
380300
700600
600400
ENDCHAR
STARTCHAR 201E
ENCODING 8222
SWIDTH 450 0
DWIDTH 30 0
BBX 20 18 4 -9
BITMAP
180180
3C03C0
7E07C0
FE0FE0
FF1FE0
FF0FE0
3F03F0
1F01F0
0F01E0
0F01E0
0F00E0
0E01E0
0E01C0
1C01C0
1C0180
180300
300700
600600
ENDCHAR
STARTCHAR 2020
ENCODING 8224
SWIDTH 495 0
DWIDTH 33 0
BBX 29 56 2 -9
BITMAP
00070000
001FC000
003FE000
003FE000
003FE000
001FC000
001FC000
000F8000
000F8000
00070000
380700E0
7E0703F0
7F820FF0
FFF27FF8
FFFFFFF8
FFE27FF8
7F820FF0
7E0203F0
10070040
00070000
00070000
000F8000
000F8000
001FC000
003FE000
001FC000
001FC000
001FC000
001FC000
001FC000
000F8000
000F8000
000F8000
000F8000
000F8000
000F8000
000F8000
00070000
00070000
00070000
00070000
00070000
00070000
00070000
00070000
00070000
00030000
00020000
00020000
00020000
00020000
00020000
00020000
00020000
00020000
00020000
ENDCHAR
STARTCHAR 2021
ENCODING 8225
SWIDTH 495 0
DWIDTH 33 0
BBX 29 56 2 -9
BITMAP
00070000
001FC000
003FE000
003FE000
003FE000
001FC000
001FC000
000F8000
000F8000
00070000
380700E0
7E0703F0
7F820FF0
FFF27FF8
FFFFFFF8
FFE27FF8
7F820FF0
7E0203F0
10060040
00070000
00070000
00070000
00070000
000F8000
000F8000
001F8000
001FC000
003FC000
003FC000
001FC000
001F8000
000F8000
000F8000
00070000
00070000
00070000
00070000
10060040
7E0203F0
7F820FF0
FFE27FF8
FFFFFFF8
FFF27FF8
7F820FF0
7E0703F0
380700E0
00070000
000F8000
000F8000
001FC000
001FC000
003FE000
003FE000
003FE000
001FC000
00070000
ENDCHAR
STARTCHAR 2022
ENCODING 8226
SWIDTH 495 0
DWIDTH 33 0
BBX 19 19 7 14
BITMAP
01F800
07FE00
1FFF00
3FFF80
7FFFC0
7FFFC0
7FFFE0
FFFFE0
FFFFE0
FFFFE0
FFFFE0
FFFFE0
FFFFE0
7FFFC0
7FFFC0
3FFF80
1FFF00
0FFE00
03FC00
ENDCHAR
STARTCHAR 2026
ENCODING 8230
SWIDTH 1005 0
DWIDTH 67 0
BBX 53 9 4 0
BITMAP
08000020000000
1C0000700001C0
3E0000F80003E0
7F0001FC0007F0
FF0003FE0007F8
7F0001FC0007F0
7E0000F80003F0
3C0000700001E0
180000700000C0
ENDCHAR
STARTCHAR 2039
ENCODING 8249
SWIDTH 315 0
DWIDTH 21 0
BBX 11 19 6 6
BITMAP
0020
0060
01C0
0380
0700
0F00
1E00
3C00
7800
F800
7800
3C00
1E00
0F00
0780
0180
00C0
0060
0020
ENDCHAR
STARTCHAR 203A
ENCODING 8250
SWIDTH 315 0
DWIDTH 21 0
BBX 12 19 3 6
BITMAP
C000
6000
3000
3800
1C00
0E00
0780
07C0
03E0
01F0
03E0
07C0
0700
0E00
1C00
3800
7000
6000
C000
ENDCHAR
STARTCHAR 2044
ENCODING 8260
SWIDTH 165 0
DWIDTH 11 0
BBX 33 48 -11 -1
BITMAP
0000000380
0000000300
0000000700
0000000E00
0000000E00
0000001C00
0000001800
0000003800
0000007000
0000006000
000000E000
000001C000
0000018000
0000038000
0000070000
0000070000
00000E0000
00001C0000
00001C0000
0000380000
0000300000
0000700000
0000E00000
0000C00000
0001C00000
0003800000
0003000000
0007000000
000E000000
000E000000
001C000000
0038000000
0038000000
0070000000
00E0000000
00E0000000
01C0000000
0180000000
0380000000
0700000000
0600000000
0E00000000
1C00000000
1C00000000
3800000000
7000000000
7000000000
E000000000
ENDCHAR
STARTCHAR 20A3
ENCODING 8355
SWIDTH 495 0
DWIDTH 33 0
BBX 33 47 2 0
BITMAP
FFFFFFF800
FFFFFFFC00
0FF8001C00
07F0000600
07F0000600
03F0000300
03E0000100
03E0000180
03E0000000
03E0000000
03E0000000
03E0000000
03E0000000
03E0000000
03E0000000
03E0000000
03E0000000
03E0003000
03E0003000
03E0003000
03E0003000
03FFFFF000
03FFFFF000
03FFFFF000
03E0007000
03E0003000
03E0003000
03E0003000
03E0000000
03E0000000
03E0000000
03E0000000
03E0000000
FFFFC00000
FFFFC00000
03E0000000
03E0000000
03E0000000
03E0000000
03E0000000
03E0000000
03F0000000
03F0000000
07F0000000
07F8000000
FFFFC00000
FFFFC00000
ENDCHAR
STARTCHAR 20A4
ENCODING 8356
SWIDTH 495 0
DWIDTH 33 0
BBX 28 47 2 0
BITMAP
000FFF80
003FFFE0
00FE0FE0
01F801E0
03F000E0
07E00060
07C00000
0F800000
0F800000
0F800000
1F000000
1F000000
1F000000
1F000000
1F000000
1F000000
1F000000
1F000000
1F800000
0F800000
0F800000
FFFFFC00
FFFFFC00
07C00000
07C00000
7FFFFC00
7FFFFC00
01F00000
01F00000
00F80000
00F80000
00F80000
00F80000
00F80000
01F00000
01F00000
01F00000
01E00000
03E00000
03C00010
07C00030
0F800030
0F800060
1F0001E0
3FFFFFC0
3FFFFFC0
3FFFFF80
ENDCHAR
STARTCHAR 20A7
ENCODING 8359
SWIDTH 990 0
DWIDTH 66 0
BBX 62 48 2 -1
BITMAP
FFFFF80000000000
FFFFFF0000000000
0FE007C000000000
07E001E000000000
07E000F001800000
03E000F801800000
03E0007801800000
03E0007C01800000
03E0003C01800000
03E0003E01800000
03E0003E03800000
03E0001E03800000
03E0001F03800000
03E0001F07800000
03E0001F0F800000
03E0001F3F803F00
03E0001FFFFFFFF0
03E0001F0F81C1F0
03E0001F0F830070
03E0001F0F870030
03E0001E0F870030
03E0001E0F860030
03E0003E0F8F0000
03E0003C0F8F0000
03F0003C0F8F8000
03F000780F8FC000
03F800780F87F000
03F800F00F87F800
03EC01E00F83FE00
03E703C00F81FF80
03E1FF000F80FFE0
03E010000F807FF0
03E000000F801FF8
03E000000F8007F8
03E000000F8001FC
03E000000F8000FC
03E000000F80007C
03E000000F80003C
03E000000F80001C
03E000000F90001C
03E000000F98001C
03F000000F980038
03F000000F8C0038
07F0000007CE0070
07F8000007E700F0
FFFFC00003FFE7C0
FFFFC00001FFFF80
0000000000001800
ENDCHAR
STARTCHAR 20AC
ENCODING 8364
SWIDTH 495 0
DWIDTH 33 0
BBX 36 48 -1 0
BITMAP
00003FE600
0001F8FF00
0007801F00
000F000700
001C000380
0038000180
0070000180
00F0000080
01E00000C0
01C0000000
03C0000000
0380000000
0780000000
0780000000
0F00000000
0F00000000
0F00000000
0F00000000
1F00000000
1E00000000
1E00000000
7FFFFFFC00
7FFFFFFC00
1E00000000
1E00000000
FFFFFFF800
FFFFFFF800
1E00000000
1F00000000
1F00000000
0F00000000
0F00000000
0F80000000
0780000000
0780000000
07C0000000
03C0000000
03E0000030
01E0000030
00F0000030
00F8000030
0078000070
003C0000F0
001F0000E0
000F8001E0
0003E00780
0000FFFE00
00001FF000
ENDCHAR
STARTCHAR 2116
ENCODING 8470
SWIDTH 1110 0
DWIDTH 74 0
BBX 0 0 0 0
BITMAP
ENDCHAR
STARTCHAR 2122
ENCODING 8482
SWIDTH 735 0
DWIDTH 49 0
BBX 0 0 0 0
BITMAP
ENDCHAR
STARTCHAR 2202
ENCODING 8706
SWIDTH 495 0
DWIDTH 33 0
BBX 28 49 3 -1
BITMAP
0E000000
0FE00000
03F80000
003E0000
000F0000
00078000
0003E000
0001E000
0000F000
00007800
00003C00
00001C00
00001E00
00000F00
00000F00
00000780
001F8780
00E1F380
01807FC0
07003FC0
0E001FC0
1E001FE0
1C000FE0
3C000FE0
3C0007E0
780007E0
780003F0
780003F0
F80003F0
F80003F0
F80001F0
F80001F0
F80001F0
F80001F0
F80001F0
FC0001F0
FC0001F0
7C0001E0
7C0001E0
7E0003E0
3E0003C0
3F0003C0
1F000380
1F800780
0F800700
07C00E00
03F01800
00F87000
001F8000
ENDCHAR
STARTCHAR 2206
ENCODING 8710
SWIDTH 525 0
DWIDTH 35 0
BBX 35 46 0 1
BITMAP
0000400000
0000600000
0000600000
0000E00000
0000F00000
0001F00000
0001F00000
0001F80000
0003780000
00033C0000
00023C0000
00063C0000
00061E0000
000C1E0000
000C1E0000
000C0F0000
00180F0000
0018070000
0010078000
0030078000
003003C000
006003C000
006003C000
006001E000
00C001E000
00C000E000
008000F000
018000F000
0180007800
0300007800
0300007800
0300003C00
0600003C00
0600003C00
0400001E00
0C00001E00
0C00000E00
1800000F00
1800000F00
1000000780
3000000780
3000000780
3FFFFFFFC0
7FFFFFFFC0
7FFFFFFFC0
FFFFFFFFE0
ENDCHAR
STARTCHAR 220F
ENCODING 8719
SWIDTH 735 0
DWIDTH 49 0
BBX 46 61 2 -14
BITMAP
FFFFFFFFFFFC
FFFFFFFFFFFC
0FF80000FF80
07F800007F80
03F000003F00
03F000003F00
03F000003F00
03F000003F00
03F000003F00
03F000003F00
03F000003F00
03F000003F00
03F000003F00
03F000003F00
03F000003F00
03F000003F00
03F000003F00
03F000003F00
03F000003F00
03F000003F00
03F000003F00
03F000003F00
03F000003F00
03F000003F00
03F000003F00
03F000003F00
03F000003F00
03F000003F00
03F000003F00
03F000003F00
03F000003F00
03F000003F00
03F000003F00
03F000003F00
03F000003F00
03F000003F00
03F000003F00
03F000003F00
03F000003F00
03F000003F00
03F000003F00
03F000003F00
03F000003F00
03F000003F00
03F000003F00
03F000003F00
03F000003F00
03F000003F00
03F000003F00
03F000003F00
03F000003F00
03F000003F00
03F000003F00
03F000003F00
03F000003F00
03F000003F00
03F000003F00
07F800007F80
0FF80000FF80
FFFFC00FFFFC
FFFFC00FFFFC
ENDCHAR
STARTCHAR 2211
ENCODING 8721
SWIDTH 585 0
DWIDTH 39 0
BBX 33 61 4 -14
BITMAP
FFFFFFFC00
FFFFFFFC00
3FC0000E00
1FE0000600
0FF0000300
07F0000100
07F8000180
03FC000180
01FE000000
00FE000000
00FF000000
007F800000
003FC00000
001FC00000
000FE00000
000FF00000
0007F80000
0003FC0000
0001FC0000
0001FE0000
0000FF0000
00007F8000
00003F8000
00001FC000
00001FE000
00000FF000
000007F000
000003F800
000003FC00
000001FC00
000000F800
0000007800
000000F000
000000E000
000001C000
0000038000
0000070000
00000E0000
00001E0000
00003C0000
0000380000
0000700000
0000E00000
0001C00000
0003800000
0007000000
000F000000
000E000000
001C000000
0038000000
0070000000
00E0000000
01C0000000
01C0000180
0380000180
0700000100
0E00000300
1C00000600
3800000E00
FFFFFFFC00
FFFFFFFC00
ENDCHAR
STARTCHAR 2212
ENCODING 8722
SWIDTH 495 0
DWIDTH 33 0
BBX 27 5 3 21
BITMAP
FFFFFFE0
FFFFFFE0
FFFFFFE0
FFFFFFE0
FFFFFFE0
ENDCHAR
STARTCHAR 2215
ENCODING 8725
SWIDTH 165 0
DWIDTH 11 0
BBX 33 48 -11 -1
BITMAP
0000000380
0000000300
0000000700
0000000E00
0000000E00
0000001C00
0000001800
0000003800
0000007000
0000006000
000000E000
000001C000
0000018000
0000038000
0000070000
0000070000
00000E0000
00001C0000
00001C0000
0000380000
0000300000
0000700000
0000E00000
0000C00000
0001C00000
0003800000
0003000000
0007000000
000E000000
000E000000
001C000000
0038000000
0038000000
0070000000
00E0000000
00E0000000
01C0000000
0180000000
0380000000
0700000000
0600000000
0E00000000
1C00000000
1C00000000
3800000000
7000000000
7000000000
E000000000
ENDCHAR
STARTCHAR 2219
ENCODING 8729
SWIDTH 255 0
DWIDTH 17 0
BBX 8 8 4 18
BITMAP
1C
3E
7E
FF
FF
7E
3E
1C
ENDCHAR
STARTCHAR 221A
ENCODING 8730
SWIDTH 495 0
DWIDTH 33 0
BBX 33 54 1 0
BITMAP
0000000F80
0000000F80
0000001E00
0000001C00
0000003C00
0000003800
0000007800
0000007000
000000F000
000000E000
000001E000
000001C000
000003C000
0000038000
0000078000
0000070000
00000F0000
00000E0000
00001E0000
00001C0000
00003C0000
0000380000
0000780000
0000700000
0000F00000
0000E00000
0001E00000
0001C00000
0003C00000
0003800000
0007800000
0007000000
000F000000
000E000000
001E000000
001C000000
003C000000
0038000000
0078000000
0070000000
00F0000000
00E0000000
41E0000000
E1C0000000
E3C0000000
7380000000
7780000000
3F00000000
3F00000000
1E00000000
1E00000000
1C00000000
0C00000000
0800000000
ENDCHAR
STARTCHAR 221E
ENCODING 8734
SWIDTH 495 0
DWIDTH 33 0
BBX 29 23 2 12
BITMAP
00003E00
00007F80
0781FFC0
1FC1FFE0
3FE3F1E0
3FF38030
70370010
60160010
C00E0008
800C0008
800C0008
80080008
80080008
80080008
801C0018
801C0018
40360030
70F700F0
3FE3C3E0
1FC3FFE0
0F81FFC0
0000FF80
00007F00
ENDCHAR
STARTCHAR 222B
ENCODING 8747
SWIDTH 330 0
DWIDTH 22 0
BBX 26 65 -2 -9
BITMAP
000003C0
00000FC0
00001FC0
000039C0
000070C0
00006040
0000C000
0000C000
0001C000
0001C000
00038000
00038000
00038000
00078000
00078000
00070000
000F0000
000F0000
000F0000
000F0000
000F0000
000F0000
000F0000
000F0000
001F0000
001F0000
001F0000
001F0000
001E0000
001E0000
001E0000
001E0000
001E0000
001E0000
003E0000
003E0000
003E0000
003E0000
003C0000
003C0000
003C0000
003C0000
003C0000
003C0000
003C0000
007C0000
007C0000
007C0000
00780000
00780000
00780000
00780000
00700000
00700000
00F00000
00E00000
00E00000
00C00000
01C00000
81800000
81800000
E7000000
FE000000
FC000000
F0000000
ENDCHAR
STARTCHAR 2248
ENCODING 8776
SWIDTH 495 0
DWIDTH 33 0
BBX 27 21 3 13
BITMAP
00000020
03800020
1FF800E0
3FFE01E0
7FFFFFE0
FFFFFFE0
F81FFFC0
E003FF00
C0007C00
80000000
00000000
00000000
01000020
1FF80060
3FFE01E0
7FFFFFE0
FFFFFFE0
F81FFFC0
E003FF00
C0007C00
80000000
ENDCHAR
STARTCHAR 2264
ENCODING 8804
SWIDTH 495 0
DWIDTH 33 0
BBX 27 40 3 0
BITMAP
00000020
000000E0
000003E0
00000FE0
00001FE0
00007FC0
0001FF80
0003FE00
000FF800
003FE000
00FFC000
01FF0000
07FC0000
1FF00000
7FE00000
FF800000
FE000000
FF000000
7FC00000
3FF00000
0FF80000
03FE0000
00FF8000
007FE000
001FF000
0007FC00
0001FF00
0000FFC0
00003FE0
00000FE0
000007E0
000001E0
00000060
00000000
00000000
FFFFFFE0
FFFFFFE0
FFFFFFE0
FFFFFFE0
FFFFFFE0
ENDCHAR
STARTCHAR 2265
ENCODING 8805
SWIDTH 495 0
DWIDTH 33 0
BBX 27 40 3 0
BITMAP
80000000
E0000000
F8000000
FE000000
FF000000
7FC00000
3FF00000
0FF80000
03FE0000
00FF8000
007FE000
001FF000
0007FC00
0003FF00
0000FFC0
00003FE0
00000FE0
00001FE0
00007FE0
0001FF80
0003FE00
000FF800
003FF000
00FFC000
01FF0000
07FC0000
1FF80000
7FE00000
FF800000
FE000000
FC000000
F0000000
C0000000
00000000
00000000
FFFFFFE0
FFFFFFE0
FFFFFFE0
FFFFFFE0
FFFFFFE0
ENDCHAR
STARTCHAR F001
ENCODING 61441
SWIDTH 525 0
DWIDTH 35 0
BBX 0 0 0 0
BITMAP
ENDCHAR
STARTCHAR F002
ENCODING 61442
SWIDTH 525 0
DWIDTH 35 0
BBX 0 0 0 0
BITMAP
ENDCHAR
STARTCHAR FB01
ENCODING 64257
SWIDTH 525 0
DWIDTH 35 0
BBX 0 0 0 0
BITMAP
ENDCHAR
STARTCHAR FB02
ENCODING 64258
SWIDTH 525 0
DWIDTH 35 0
BBX 0 0 0 0
BITMAP
ENDCHAR
ENDFONT
